<?xml version="1.0" encoding="UTF-8"?>
<svg id="b" data-name="Layer_2" xmlns="http://www.w3.org/2000/svg" width="59" height="59" viewBox="0 0 59 59">
  <g id="c" data-name="Layer_1">
    <rect width="59" height="59" rx="8.729" ry="8.729" fill="#feccff"/>
    <path d="M49.233,33.953c-.496-1.426-.38-1.932-.174-2.437.206-.507.258-1.242,0-1.932-.258-.69-1.031-2.76-1.907-5.933-.876-3.173-1.804-8.099-2.216-10.123-.413-2.023-3.608-2.76-4.175-3.035-.567-.276-1.082-1.978-1.546-2.76-.464-.782-2.113-1.15-3.557-1.15s-1.597.092-2.966-.885c-1.368-.976-5.016-.976-6.384,0-1.369.977-1.523.885-2.966.885s-3.093.368-3.557,1.15c-.464.782-.979,2.483-1.546,2.76-.567.276-3.762,1.012-4.174,3.035-.413,2.024-1.341,6.95-2.217,10.123-.876,3.174-1.649,5.243-1.907,5.933-.258.69-.206,1.425,0,1.932.206.505.321,1.011-.175,2.437-.496,1.425-1.526,4.093-1.32,4.921.206.827,2.114,2.161,2.835,2.713s1.185.874,1.185,2.208,0,2.759,1.185,3.403c1.186.644,5.097,1.021,5.917,1.752.82.732,2.038,3.591,5.177,3.353,1.431-.108,3.729-.802,4.719-.802s3.359.694,4.79.802c3.138.237,4.356-2.621,5.176-3.353.821-.732,4.731-1.109,5.917-1.752s1.185-2.069,1.185-3.403.464-1.656,1.185-2.208c.722-.552,2.629-1.886,2.835-2.713.206-.828-.825-3.496-1.32-4.921ZM35.118,21.974c-1.458-.488-2.299-.217-2.916.76-.617.977-1.33-.706-2.571-.706s-1.954,1.683-2.571.706c-.617-.977-1.458-1.248-2.916-.76-2.019-1.031-2.691-3.526-1.346-6.131,1.346-2.604,4.038-3.472,6.834-3.472s5.488.868,6.834,3.472c1.345,2.605.673,5.1-1.346,6.131Z" fill="#fff"/>
    <line x1="18.423" y1="52.436" x2="24.373" y2="17.817" fill="none" stroke="#feccff" stroke-miterlimit="10"/>
    <path d="M11.577,44.161s5.658-14.693,6.807-25.769c.635-6.125,5.825-6.564,6.153-2.051" fill="none" stroke="#feccff" stroke-miterlimit="10"/>
    <line x1="40.387" y1="52.436" x2="34.438" y2="17.817" fill="none" stroke="#feccff" stroke-miterlimit="10"/>
    <path d="M47.234,44.161s-5.658-14.693-6.807-25.769c-.635-6.125-5.825-6.564-6.153-2.051" fill="none" stroke="#feccff" stroke-miterlimit="10"/>
    <line x1="29.631" y1="20.217" x2="29.631" y2="55.027" fill="none" stroke="#feccff" stroke-miterlimit="10"/>
  </g>
</svg>