<?xml version="1.0" encoding="UTF-8"?>
<svg id="b" data-name="Layer_2" xmlns="http://www.w3.org/2000/svg" width="59" height="59" viewBox="0 0 59 59">
  <g id="c" data-name="Layer_1">
    <rect width="59" height="59" rx="8.729" ry="8.729" fill="#feccff"/>
    <g>
      <path d="M32.132,14.615l-10.361-9.538.653,13.066c-1.875-.424-12.848-2.907-12.848-2.907l7.146,10.991-12.591,3.86,12.573,6.404c.285,1.352.73,2.692,1.344,3.998,4.306,9.168,15.284,13.134,24.519,8.859,9.235-4.275,13.231-15.173,8.924-24.34-3.523-7.5-11.512-11.519-19.358-10.392Z" fill="#fff"/>
      <polygon points="34.776 19.083 37.97 28.915 48.308 28.915 39.944 34.991 43.139 44.822 34.776 38.746 26.412 44.822 29.607 34.991 21.244 28.915 31.581 28.915 34.776 19.083" fill="#feccff"/>
    </g>
  </g>
</svg>