<?xml version="1.0" encoding="UTF-8"?>
<svg id="b" data-name="Layer_2" xmlns="http://www.w3.org/2000/svg" width="59" height="59" viewBox="0 0 59 59">
  <g id="c" data-name="Layer_1">
    <rect width="59" height="59" rx="8.729" ry="8.729" fill="#feccff"/>
    <g>
      <g>
        <path d="M29.5,23.189c-3.73,0-6.765-3.035-6.765-6.765s3.035-6.765,6.765-6.765,6.765,3.035,6.765,6.765-3.035,6.765-6.765,6.765ZM29.5,10.112c-3.48,0-6.311,2.831-6.311,6.311s2.831,6.311,6.311,6.311,6.311-2.831,6.311-6.311-2.831-6.311-6.311-6.311Z" fill="#fff" stroke="#fff" stroke-miterlimit="10" stroke-width=".5"/>
        <path d="M29.5,36.265c-.103,0-.204-.002-.306-.007l.02-.453c.289.013.586.006.874-.021l.042.452c-.207.019-.419.029-.63.029ZM27.656,36.011c-.3-.085-.597-.192-.882-.317l.183-.415c.266.117.542.217.822.296l-.124.437ZM31.655,35.915l-.144-.43c.275-.092.546-.205.807-.335l.203.406c-.279.139-.57.26-.865.359ZM25.43,34.904c-.248-.187-.486-.394-.707-.614l.321-.321c.206.206.428.399.66.573l-.273.362ZM33.824,34.703l-.29-.349c.223-.186.436-.389.632-.604l.335.306c-.21.23-.437.448-.677.647ZM23.753,33.071c-.165-.265-.312-.543-.438-.827l.415-.184c.117.265.255.524.409.771l-.385.24ZM35.412,32.791l-.397-.221c.142-.255.267-.521.372-.791l.423.164c-.112.29-.246.575-.398.848ZM22.851,30.755c-.057-.305-.094-.618-.108-.93l.453-.022c.014.291.048.583.101.868l-.446.084ZM36.201,30.434l-.45-.062c.04-.287.06-.58.06-.872l.454-.027v.027c0,.312-.022.626-.064.934ZM23.293,28.353l-.446-.082c.056-.306.135-.612.233-.907l.431.143c-.092.276-.165.56-.217.846ZM35.639,28.03c-.068-.283-.156-.564-.261-.833l.423-.166c.113.29.208.59.28.894l-.441.105ZM24.125,26.19l-.386-.238c.163-.265.347-.521.546-.761l.35.289c-.186.224-.357.463-.509.71ZM34.695,25.915c-.165-.239-.349-.468-.545-.683l.334-.307c.211.229.407.476.584.731l-.373.258ZM25.684,24.473l-.275-.361c.248-.188.511-.361.782-.514l.222.396c-.253.142-.499.304-.73.479ZM33.049,24.281c-.241-.164-.494-.312-.755-.441l.201-.407c.279.138.551.297.809.473l-.256.375ZM27.755,23.433l-.125-.436c.299-.086.608-.152.916-.195l.064.449c-.288.041-.575.102-.854.182ZM30.926,23.35c-.282-.065-.572-.111-.863-.137l.04-.452c.311.027.622.077.925.147l-.102.442Z" fill="#fff" stroke="#fff" stroke-miterlimit="10" stroke-width=".5"/>
        <circle cx="29.5" cy="42.576" r="6.538" fill="#fff" stroke="#fff" stroke-miterlimit="10" stroke-width=".5"/>
        <path d="M49.342,49.342H9.658V9.658h39.683v39.683ZM10.112,48.888h38.775V10.112H10.112v38.775Z" fill="#fff" stroke="#fff" stroke-miterlimit="10" stroke-width=".5"/>
      </g>
      <g>
        <rect x="-.222" y="29.273" width="59.444" height=".454" transform="translate(-12.219 29.5) rotate(-45)" fill="#fff" stroke="#fff" stroke-miterlimit="10" stroke-width=".5"/>
        <rect x="18.765" y="4.131" width=".454" height="29.722" transform="translate(-7.867 18.992) rotate(-45)" fill="#fff" stroke="#fff" stroke-miterlimit="10" stroke-width=".5"/>
        <rect x="39.781" y="25.147" width=".454" height="29.722" transform="translate(-16.572 40.008) rotate(-45)" fill="#fff" stroke="#fff" stroke-miterlimit="10" stroke-width=".5"/>
        <path d="M13.697,21.298c-4.191,0-7.6-3.41-7.6-7.6s3.41-7.6,7.6-7.6,7.6,3.41,7.6,7.6-3.41,7.6-7.6,7.6ZM13.697,6.551c-3.941,0-7.146,3.206-7.146,7.146s3.206,7.146,7.146,7.146,7.146-3.206,7.146-7.146-3.206-7.146-7.146-7.146Z" fill="#fff" stroke="#fff" stroke-miterlimit="10" stroke-width=".5"/>
        <path d="M13.697,52.903c-4.191,0-7.6-3.41-7.6-7.6s3.41-7.6,7.6-7.6,7.6,3.41,7.6,7.6-3.41,7.6-7.6,7.6ZM13.697,38.156c-3.941,0-7.146,3.206-7.146,7.146s3.206,7.146,7.146,7.146,7.146-3.206,7.146-7.146-3.206-7.146-7.146-7.146Z" fill="#fff" stroke="#fff" stroke-miterlimit="10" stroke-width=".5"/>
        <path d="M45.303,21.298c-4.191,0-7.6-3.41-7.6-7.6s3.41-7.6,7.6-7.6,7.6,3.41,7.6,7.6-3.41,7.6-7.6,7.6ZM45.303,6.551c-3.941,0-7.146,3.206-7.146,7.146s3.206,7.146,7.146,7.146,7.146-3.206,7.146-7.146-3.206-7.146-7.146-7.146Z" fill="#fff" stroke="#fff" stroke-miterlimit="10" stroke-width=".5"/>
        <path d="M45.303,52.903c-4.191,0-7.6-3.41-7.6-7.6s3.41-7.6,7.6-7.6,7.6,3.41,7.6,7.6-3.41,7.6-7.6,7.6ZM45.303,38.156c-3.941,0-7.146,3.206-7.146,7.146s3.206,7.146,7.146,7.146,7.146-3.206,7.146-7.146-3.206-7.146-7.146-7.146Z" fill="#fff" stroke="#fff" stroke-miterlimit="10" stroke-width=".5"/>
        <path d="M40.235,40.235h-21.551v-21.551h21.551v21.551ZM19.138,39.781h20.643v-20.643h-20.643v20.643Z" fill="#fff" stroke="#fff" stroke-miterlimit="10" stroke-width=".5"/>
      </g>
    </g>
  </g>
</svg>