<?xml version="1.0" encoding="UTF-8"?>
<svg id="b" data-name="Layer_2" xmlns="http://www.w3.org/2000/svg" width="59" height="59" viewBox="0 0 59 59">
  <g id="c" data-name="Layer_1">
    <rect width="59" height="59" rx="8.729" ry="8.729" fill="#feccff"/>
    <g>
      <path d="M29.5,22.603c-4.077,0-7.393-3.317-7.393-7.393s3.317-7.393,7.393-7.393,7.393,3.317,7.393,7.393-3.317,7.393-7.393,7.393ZM29.5,8.312c-3.803,0-6.897,3.094-6.897,6.897s3.094,6.897,6.897,6.897,6.897-3.094,6.897-6.897-3.094-6.897-6.897-6.897Z" fill="#fff" stroke="#fff" stroke-miterlimit="10" stroke-width=".7"/>
      <path d="M29.5,36.893c-.112,0-.223-.003-.334-.008l.022-.495c.316.014.64.006.955-.023l.046.494c-.227.021-.458.031-.688.032ZM27.485,36.615c-.328-.093-.652-.209-.964-.347l.2-.454c.29.128.593.237.899.323l-.135.477ZM31.855,36.51l-.158-.47c.3-.101.597-.224.882-.366l.222.444c-.305.152-.623.284-.945.393ZM25.052,35.406c-.271-.204-.531-.43-.773-.671l.35-.351c.225.225.468.436.721.626l-.299.396ZM34.226,35.186l-.317-.381c.244-.203.476-.425.69-.66l.367.334c-.229.251-.478.489-.739.707ZM23.219,33.402c-.18-.289-.341-.594-.479-.904l.453-.202c.128.289.279.573.447.843l-.421.262ZM35.961,33.097l-.433-.242c.155-.278.292-.569.406-.864l.462.179c-.123.316-.269.628-.435.927ZM22.234,30.872c-.062-.334-.102-.676-.119-1.016l.495-.024c.015.318.052.637.111.948l-.488.091ZM36.823,30.521l-.491-.068c.043-.314.065-.634.065-.953l.496-.029v.029c0,.341-.024.684-.07,1.021ZM22.716,28.247l-.488-.09c.062-.335.147-.668.254-.991l.471.156c-.1.301-.18.612-.237.925ZM36.209,27.894c-.074-.31-.17-.616-.286-.911l.462-.181c.124.316.227.645.306.977l-.482.115ZM23.626,25.883l-.422-.261c.178-.289.379-.569.597-.832l.382.316c-.203.245-.39.506-.557.776ZM35.177,25.582c-.181-.261-.381-.512-.596-.746l.365-.336c.23.251.445.52.638.799l-.408.282ZM25.33,24.006l-.3-.395c.271-.206.558-.395.855-.561l.243.432c-.277.155-.545.332-.798.524ZM33.379,23.796c-.263-.179-.54-.341-.825-.482l.22-.445c.305.151.602.325.884.517l-.279.41ZM27.593,22.87l-.137-.477c.327-.094.664-.166,1.001-.213l.069.491c-.314.044-.629.111-.934.199ZM31.058,22.779c-.308-.071-.625-.122-.943-.15l.044-.494c.34.03.68.084,1.011.16l-.112.483Z" fill="#fff" stroke="#fff" stroke-miterlimit="10" stroke-width=".7"/>
      <circle cx="29.5" cy="43.791" r="7.145" fill="#fff" stroke="#fff" stroke-miterlimit="10" stroke-width=".7"/>
      <path d="M51.184,51.184H7.816V7.816h43.368v43.368ZM8.312,50.688h42.376V8.312H8.312v42.376Z" fill="#fff" stroke="#fff" stroke-miterlimit="10" stroke-width=".7"/>
    </g>
  </g>
</svg>