<?xml version="1.0" encoding="UTF-8"?>
<svg id="b" data-name="Layer_2" xmlns="http://www.w3.org/2000/svg" width="59" height="59" viewBox="0 0 59 59">
  <g id="c" data-name="Layer_1">
    <rect width="59" height="59" rx="8.729" ry="8.729" fill="#feccff"/>
    <g>
      <path d="M32.81,49.808c-3.604-7.008-3.304-18.32,1.398-26.662,5.029,1.254,7.227,10.461,7.227,11.976,3.637-6.212,1.714-12.074,1.714-12.832,5.909-.078,9.499,6.468,9.499,6.468,0,0-.869-11.443-11.819-12.554,1.364-3.053,8.106-4.348,11.819-2.75-4.848-5.669-12.682-4.92-16.061-1.667-1.97-6.667-7.78-9.628-16.97-7.273,7.137.753,9.849,5.758,10,6.97-6.214-3.547-14.849-.909-18.789,5.455,8.209-3.179,12.095-1.624,13.485-.735-6.121,1.966-9.153,6.475-10.303,13.312,7.973-8.798,15.3-7.769,17.728-7.342-5.829,5.048-8.377,14.35-10.416,24.926,5.041,2.724,9.873,2.688,11.488,2.708Z" fill="#fff"/>
      <ellipse cx="27.552" cy="47.182" rx="19.274" ry="6.555" fill="#fff"/>
    </g>
  </g>
</svg>