<?xml version="1.0" encoding="UTF-8"?>
<svg id="b" data-name="Layer_2" xmlns="http://www.w3.org/2000/svg" width="59" height="59" viewBox="0 0 59 59">
  <g id="c" data-name="Layer_1">
    <rect x="0" width="59" height="59" rx="8.729" ry="8.729" fill="#feccff"/>
    <g>
      <path d="M48.896,12.123c.502-1.095.823-1.219,1.259-1.615.457-.414.876-.942,1.298-2.022.434-1.113.633-1.931.083-1.559s-12.055,11.34-12.52,11.763-.803.818-.517,1.056c.194.161,1.243.945,2.189.959s1.654-.43,2.046-.602c.517-.226.986-.243.724.456s-.708,1.253-.721,2.073.458,1.581.62,2.052c.179.521.056.883-.667.541-.759-.358-1.08-.655-1.991-.669s-1.564.474-1.95.632-1.057.195-.636-.701.652-1.362.664-1.831c.014-.552-.184-1.054-.355-1.524-.293-.807-.571-1.327-1.288-.67s-9.678,9.075-10.52,9.904-1.924,1.823-2.797,3.438c-.9,1.665-1.446,2.743-1.765,3.407-.295.613-.551,1.551-.781,2.289-.2.642-.573,1.477-1.496.906-.95-.587-1.314-.83-1.717-1.608-.439-.848-1.58-3.009-4.784-3.281-2.747-.234-4.003,1.791-4.427,2.331-.396.504-.572.911-1.45.991s-2.568.222-2.937.326-.578.303-.087.451,2.347.676,3.011,1.012c.897.454,1.442.695,2.679,2.101s2.323,3.104,5.912,4.991c3.423,1.799,7.302,2.25,10.911,1.728s8.176-2.671,10.585-3.981c1.759-.957,3.081-1.652,5.018-2.096,1.353-.31,3.065-.624,4.049-.792.727-.124,1.718-.273,1.718-.42,0-.121-1.292-.136-2.171-.223s-1.396-.476-1.422-.956,0-.757.947-2.099c.998-1.415,1.715-2.225,1.59-2.35-.1-.1-.958.71-1.706,1.292s-2.491,2.059-4.324,3.023-2.593,1.337-4.838,1.898-4.965.948-7.516.689-4.311-.618-5.014-.826c-.615-.182-.815-.57-.291-1.041s1.707-.79,3.435-.427,3.654.805,5.797.839c2.072.032,4.193-.31,6.537-1.335,1.975-.864,3.842-2.409,5.295-4.866,1.47-2.487,1.643-4.287,1.314-4.917-.255-.487-1.062-.658-1.971-.927-1.066-.316-1.23-.928-.437-1.737s2.002-2.115,2.226-3.485c.246-1.503-.162-2.614-.136-3.358s.089-1.472,1.38-2.654c1.354-1.239,1.657-2.027,1.657-3.616,0-1.415-.114-2.088.286-2.96Z" fill="#fff"/>
      <path d="M20.94,36.856c.371-.992,1.616-3.281,1.954-3.896s.767-1.285,1.85-2.403,3.481-3.254,4.06-3.904.868-1.398.791-2.72c-.061-1.056-.505-2.285-1.703-3.596-.995-1.09-.928-2.057-.713-3.818.217-1.772-.469-2.892-.969-3.787-.36-.644-.568-1.51-.352-2.363.281-1.112.181-2.231-.177-3.245-.134-.38-.305-.279-.559.615-.334,1.179-5.119,19.021-5.53,20.558-.272,1.018-.487,2.025-.412,4.475s.206,5.625.388,6.116.474.624.68.245.238-1.065.691-2.278Z" fill="#fff"/>
      <path d="M49.254,33.791c-.191-.137.194-1.273.61-1.881.376-.549.902-.588,1.135-.402.289.229.263.788-.198,1.306-.407.457-1.313,1.145-1.547.977Z" fill="#fff"/>
      <path d="M53.05,41.024c.258-.248.852-.762,1.456-.953.63-.199,1.138-.051,1.214.373.075.416-.355.74-.862.872-.528.137-1.394.122-1.694.094-.263-.025-.336-.171-.114-.385Z" fill="#fff"/>
    </g>
  </g>
</svg>