<?xml version="1.0" encoding="UTF-8"?>
<svg id="b" data-name="Layer_2" xmlns="http://www.w3.org/2000/svg" width="59" height="59" viewBox="0 0 59 59">
  <g id="c" data-name="Layer_1">
    <rect width="59" height="59" rx="8.729" ry="8.729" fill="#feccff"/>
    <g>
      <rect x="30.503" y="53.256" width="2.006" height="1.672" fill="#fff"/>
      <rect x="28.497" y="53.256" width="2.006" height="1.672" fill="#fff"/>
      <rect x="26.49" y="53.256" width="2.006" height="1.672" fill="#fff"/>
      <rect x="30.503" y="51.584" width="2.006" height="1.672" fill="#fff"/>
      <rect x="26.49" y="51.584" width="2.006" height="1.672" fill="#fff"/>
      <rect x="32.51" y="49.912" width="2.006" height="1.672" fill="#fff"/>
      <rect x="30.503" y="49.912" width="2.006" height="1.672" fill="#fff"/>
      <rect x="26.49" y="49.912" width="2.006" height="1.672" fill="#fff"/>
      <rect x="24.484" y="49.912" width="2.006" height="1.672" fill="#fff"/>
      <rect x="34.516" y="48.24" width="2.006" height="1.672" fill="#fff"/>
      <rect x="32.51" y="48.24" width="2.006" height="1.672" fill="#fff"/>
      <rect x="24.484" y="48.24" width="2.006" height="1.672" fill="#fff"/>
      <rect x="22.477" y="48.24" width="2.006" height="1.672" fill="#fff"/>
      <rect x="34.516" y="46.568" width="2.006" height="1.672" fill="#fff"/>
      <rect x="22.477" y="46.568" width="2.006" height="1.672" fill="#fff"/>
      <rect x="34.516" y="44.896" width="2.006" height="1.672" fill="#fff"/>
      <rect x="22.477" y="44.896" width="2.006" height="1.672" fill="#fff"/>
      <rect x="34.516" y="43.224" width="2.006" height="1.672" fill="#fff"/>
      <rect x="22.477" y="43.224" width="2.006" height="1.672" fill="#fff"/>
      <rect x="34.516" y="41.552" width="2.006" height="1.672" fill="#fff"/>
      <rect x="22.477" y="41.552" width="2.006" height="1.672" fill="#fff"/>
      <rect x="34.516" y="39.88" width="2.006" height="1.672" fill="#fff"/>
      <rect x="32.51" y="39.88" width="2.006" height="1.672" fill="#fff"/>
      <rect x="30.503" y="39.88" width="2.006" height="1.672" fill="#fff"/>
      <rect x="28.497" y="39.88" width="2.006" height="1.672" fill="#fff"/>
      <rect x="26.49" y="39.88" width="2.006" height="1.672" fill="#fff"/>
      <rect x="24.484" y="39.88" width="2.006" height="1.672" fill="#fff"/>
      <rect x="22.477" y="39.88" width="2.006" height="1.672" fill="#fff"/>
      <rect x="34.516" y="38.208" width="2.006" height="1.672" fill="#fff"/>
      <rect x="22.477" y="38.208" width="2.006" height="1.672" fill="#fff"/>
      <rect x="34.516" y="36.536" width="2.006" height="1.672" fill="#fff"/>
      <rect x="22.477" y="36.536" width="2.006" height="1.672" fill="#fff"/>
      <rect x="34.516" y="34.864" width="2.006" height="1.672" fill="#fff"/>
      <rect x="22.477" y="34.864" width="2.006" height="1.672" fill="#fff"/>
      <rect x="36.523" y="33.192" width="2.006" height="1.672" fill="#fff"/>
      <rect x="34.516" y="33.192" width="2.006" height="1.672" fill="#fff"/>
      <rect x="22.477" y="33.192" width="2.006" height="1.672" fill="#fff"/>
      <rect x="20.471" y="33.192" width="2.006" height="1.672" fill="#fff"/>
      <rect x="36.523" y="31.52" width="2.006" height="1.672" fill="#fff"/>
      <rect x="20.471" y="31.52" width="2.006" height="1.672" fill="#fff"/>
      <rect x="38.529" y="29.848" width="2.006" height="1.672" fill="#fff"/>
      <rect x="18.465" y="29.848" width="2.006" height="1.672" fill="#fff"/>
      <rect x="38.529" y="28.176" width="2.006" height="1.672" fill="#fff"/>
      <rect x="18.465" y="28.176" width="2.006" height="1.672" fill="#fff"/>
      <rect x="40.535" y="26.504" width="2.006" height="1.672" fill="#fff"/>
      <rect x="16.458" y="26.504" width="2.006" height="1.672" fill="#fff"/>
      <rect x="40.535" y="24.832" width="2.006" height="1.672" fill="#fff"/>
      <rect x="16.458" y="24.832" width="2.006" height="1.672" fill="#fff"/>
      <rect x="42.542" y="23.16" width="2.006" height="1.672" fill="#fff"/>
      <rect x="40.535" y="23.16" width="2.006" height="1.672" fill="#fff"/>
      <rect x="16.458" y="23.16" width="2.006" height="1.672" fill="#fff"/>
      <rect x="14.452" y="23.16" width="2.006" height="1.672" fill="#fff"/>
      <rect x="42.542" y="21.488" width="2.006" height="1.672" fill="#fff"/>
      <rect x="14.452" y="21.488" width="2.006" height="1.672" fill="#fff"/>
      <rect x="42.542" y="19.816" width="2.006" height="1.672" fill="#fff"/>
      <rect x="14.452" y="19.816" width="2.006" height="1.672" fill="#fff"/>
      <rect x="42.542" y="18.144" width="2.006" height="1.672" fill="#fff"/>
      <rect x="14.452" y="18.144" width="2.006" height="1.672" fill="#fff"/>
      <rect x="42.542" y="16.472" width="2.006" height="1.672" fill="#fff"/>
      <rect x="14.452" y="16.472" width="2.006" height="1.672" fill="#fff"/>
      <rect x="42.542" y="14.8" width="2.006" height="1.672" fill="#fff"/>
      <rect x="40.535" y="14.8" width="2.006" height="1.672" fill="#fff"/>
      <rect x="16.458" y="14.8" width="2.006" height="1.672" fill="#fff"/>
      <rect x="14.452" y="14.8" width="2.006" height="1.672" fill="#fff"/>
      <rect x="40.535" y="13.128" width="2.006" height="1.672" fill="#fff"/>
      <rect x="16.458" y="13.128" width="2.006" height="1.672" fill="#fff"/>
      <rect x="40.535" y="11.456" width="2.006" height="1.672" fill="#fff"/>
      <rect x="16.458" y="11.456" width="2.006" height="1.672" fill="#fff"/>
      <rect x="40.535" y="9.784" width="2.006" height="1.672" fill="#fff"/>
      <rect x="38.529" y="9.784" width="2.006" height="1.672" fill="#fff"/>
      <rect x="18.465" y="9.784" width="2.006" height="1.672" fill="#fff"/>
      <rect x="38.529" y="8.112" width="2.006" height="1.672" fill="#fff"/>
      <rect x="36.523" y="8.112" width="2.006" height="1.672" fill="#fff"/>
      <rect x="20.471" y="8.112" width="2.006" height="1.672" fill="#fff"/>
      <rect x="18.465" y="8.112" width="2.006" height="1.672" fill="#fff"/>
      <rect x="36.523" y="6.44" width="2.006" height="1.672" fill="#fff"/>
      <rect x="34.516" y="6.44" width="2.006" height="1.672" fill="#fff"/>
      <rect x="32.51" y="6.44" width="2.006" height="1.672" fill="#fff"/>
      <rect x="24.484" y="6.44" width="2.006" height="1.672" fill="#fff"/>
      <rect x="22.477" y="6.44" width="2.006" height="1.672" fill="#fff"/>
      <rect x="20.471" y="6.44" width="2.006" height="1.672" fill="#fff"/>
      <rect x="30.503" y="4.768" width="2.006" height="1.672" fill="#fff"/>
      <rect x="32.51" y="4.768" width="2.006" height="1.672" fill="#fff"/>
      <rect x="28.497" y="4.768" width="2.006" height="1.672" fill="#fff"/>
      <rect x="26.49" y="4.768" width="2.006" height="1.672" fill="#fff"/>
      <rect x="24.484" y="4.768" width="2.006" height="1.672" fill="#fff"/>
    </g>
  </g>
</svg>