<?xml version="1.0" encoding="UTF-8"?>
<svg id="b" data-name="Layer_2" xmlns="http://www.w3.org/2000/svg" width="59" height="59" viewBox="0 0 59 59">
  <g id="c" data-name="Layer_1">
    <rect width="59" height="59" rx="8.729" ry="8.729" fill="#feccff"/>
    <g>
      <path d="M29.534,26.017v-.043l-.011-.008s-.007.006-.011.008v.043h.023Z" fill="#fff"/>
      <path d="M47.327,27.041l-1.791,3.135s-.985.985-3.851,2.239c-3.314-3.762-5.911-.537-5.911-.537v-4.478c13.613-1.971,13.434-7.523,13.434-7.523,0,0-4.389-4.747-7.165-7.702s-6.001-7.523-12.543-7.523-9.766,4.568-12.543,7.523c-2.776,2.955-7.165,7.702-7.165,7.702,0,0-.179,5.553,13.434,7.523v4.478s-2.597-3.224-5.911.537c-2.866-1.254-3.851-2.239-3.851-2.239l-1.791-3.135s-5.821,7.523-3.941,15.047c1.881,7.523,11.741,10.389,21.768,10.389s19.887-2.866,21.768-10.389c1.88-7.523-3.941-15.047-3.941-15.047ZM36.073,39.648h-13.101c-2.779,0-2.978-2.448-2.978-2.448,0,0,5.029-2.647,6.749-3.706,1.72-1.058,2.117-2.117,1.588-3.176-.529-1.059-5.029-4.301-5.029-4.301h6.154c.018-.015.036-.028.055-.043v-.017c-5.056-3.995-8.921-6.05-8.921-10.527,0-4.499,5.161-7.08,8.933-7.08s8.933,2.581,8.933,7.08c0,4.476-3.865,6.532-8.921,10.527v.017c.018.015.036.028.055.043h6.153s-4.499,3.242-5.029,4.301c-.53,1.059-.132,2.117,1.588,3.176,1.72,1.059,6.749,3.706,6.749,3.706,0,0-.199,2.448-2.978,2.448Z" fill="#fff"/>
    </g>
  </g>
</svg>