<?xml version="1.0" encoding="UTF-8"?>
<svg id="b" data-name="Layer_2" xmlns="http://www.w3.org/2000/svg" width="215.524" height="215.524" xmlns:xlink="http://www.w3.org/1999/xlink" viewBox="0 0 215.524 215.524">
  <defs>
    <clipPath id="d">
      <rect width="215.524" height="215.524" fill="none"/>
    </clipPath>
  </defs>
  <g id="c" data-name="Layer_1">
    <g clip-path="url(#d)">
      <g>
        <path d="M324.364,312.445v102.447H-114.94c0-32.613,0-65.211,0-97.808.55-.104,1.12-.147,1.648-.32,3.197-1.052,6.45-1.937,9.626-3.035,3.731-1.29,7.587-2.061,11.386-3.05,3.513-.914,7.181-1.241,10.511-2.839.062-.03.135-.038.202-.058,1.473-.458,2.958-.883,4.417-1.383,2.593-.888,5.139-1.899,7.568-3.177,3.23-1.699,6.448-3.422,9.662-5.152.428-.231.815-.547,1.196-.854.567-.456,1.199-.718,1.924-.767,2.825-.194,5.194-1.644,7.544-2.974,1.524-.863,3.001-1.801,4.617-2.495.58-.249,1.17-.486,1.719-.792,1.788-.994,3.694-1.721,5.655-2.235,1.145-.3,2.133-.762,2.869-1.634,1.692-2.005,3.733-3.611,5.774-5.218,2.701-2.126,5.297-4.398,8.296-6.124.298-.172.569-.412.807-.664,2.311-2.446,4.627-4.887,6.91-7.359,1.428-1.546,2.739-3.204,4.211-4.705,3.882-3.956,7.803-7.875,11.749-11.768,2.399-2.367,4.871-4.66,7.318-6.978.407-.386.845-.739,1.279-1.095,1.409-1.158,2.81-2.325,4.237-3.461,1.151-.916,2.268-1.903,3.521-2.657,1.407-.846,2.655-1.824,3.711-3.069.636-.75,1.274-1.501,1.96-2.205.647-.664,1.132-1.411,1.536-2.244.736-1.517,1.547-2.984,2.743-4.221.472-.488.715-1.193,1.094-1.779.837-1.293,1.626-2.625,2.56-3.846,1.103-1.442,2.339-2.781,3.512-4.169.088-.105.19-.243.191-.366.002-.191-.019-.449-.139-.555-.122-.107-.448-.159-.562-.072-1.564,1.191-3.214,2.202-5.156,2.655-.064.015-.145.056-.175.11-.617,1.104-1.978,1.914-1.341,3.515.242.608-.019,1.067-.584,1.404-1.384.825-2.735,1.705-4.134,2.502-.331.189-.845.28-1.193.166-.65-.212-1.247-.593-1.852-.93-.396-.221-.521-.841-1.196-.787,0,.283.006.554-.001.824-.016.596-.252,1.091-.722,1.46-.483.38-.929.013-1.393-.077-.191-.037-.403.029-.663.054-.17.302-.32.615-.512.9-.496.74-.961.85-1.468.152-.65-.895-1.453-.992-2.403-.852-.139.02-.28.021-.42.031-.634.042-1.041.367-1.218.979-.077.265-.154.53-.233.805-.655-.034-1.26-.065-1.888-.097-.152.335-.333.577-.367.838-.202,1.533-1.222,2.658-1.944,3.926-.233.409-.641.755-1.039,1.028-.859.59-2.012.344-2.581-.509-.193-.291-.309-.633-.498-.927-.323-.5-.717-.578-1.27-.316-.394.186-.608.867-1.455.318.443-.915.989-1.925.397-3.052-.498-.948-.504-2.17-1.548-2.886-.879.535-1.231,1.23-1.181,2.15.026.486.109.981.045,1.455-.027.203-.35.486-.564.511-.214.025-.606-.18-.665-.365-.167-.519-.256-1.079-.274-1.626-.015-.484.169-.975.155-1.46-.029-.964-.381-1.778-1.315-2.23-.485-.235-1.074.075-1.082.599-.005.346.064.694.097,1.041.053.555.177,1.115.14,1.664-.067.978-.22,1.952-.366,2.923-.028.184-.189.348-.309.556-.828-.176-1.002-.862-.995-1.435.022-1.964-.827-3.85-.425-5.852.171-.849-.113-1.634-.878-2.228-1.832-1.422-2.396-3.416-2.257-5.62.096-1.522-.327-2.915-.742-4.331-.22-.751-.732-1.158-1.433-1.414-.874-.319-1.27-.137-1.661.709-.311.674-.287,1.493-.797,2.11-.719-.423-.678-.985-.484-1.532.362-1.02.513-2.03.204-3.096-.095-.327-.08-.701-.049-1.047.225-2.471-.732-4.527-2.235-6.386-.102-.127-.358-.129-.537-.187-.448.659-.188,1.269-.001,1.861.169.534.429,1.039.603,1.572.259.791.139,1.529-.44,2.156-.253.275-.545.44-.962.104-.11-.556-.1-1.239-.379-1.77-.714-1.36-.708-2.843-.926-4.29-.073-.482-.131-.987-.065-1.464.15-1.088-.234-2.084-.434-3.111-.084-.432-.358-.736-.783-.923-.294-.129-.55-.345-.847-.537.145-.381.228-.645.343-.895.304-.661.15-1.232-.328-1.737-1.577-1.667-2.55-3.665-3.216-5.834-.102-.333-.25-.652-.39-.972-.845-1.926-1.668-3.863-2.552-5.771-.529-1.141-1.17-2.23-1.734-3.355-.246-.491-.506-.998-.62-1.528-.279-1.295-.459-2.612-.725-3.911-.047-.229-.292-.542-.492-.581-.199-.039-.5.175-.678.356-.353.359-.142,1.179-1.087,1.193-.155-.414-.366-.843-.474-1.296-.145-.612-.182-1.249-.315-1.865-.623-2.88-1.338-5.741-1.874-8.637-.444-2.402-1.341-4.732-1.233-7.231.009-.204-.08-.412-.128-.617-.435-1.845-.916-3.681-1.292-5.538-.346-1.708-.793-3.414-.435-5.198.191-.95-.02-1.709-.98-2.315-1.058-.668-1.091-1.549-.188-2.421.582-.562.754-1.147.67-1.879-.04-.349-.127-.692-.168-1.04-.305-2.579-.648-5.154-.885-7.739-.119-1.298-.459-2.536-1.154-3.57-.64-.952-.773-1.907-.817-2.972-.067-1.611-.194-3.22-.324-4.828-.192-2.376-.414-4.749-.606-7.125-.022-.273.044-.561.109-.833.239-.995.058-1.938-.238-2.898-.537-1.742-1.054-3.493-1.486-5.263-.161-.659-.072-1.382-.078-2.076-.011-1.257.2-2.56-.059-3.762-.433-2.01-.016-3.902.329-5.828.089-.498.406-.838.798-1.183.946-.834.94-1.592.105-2.484-.047-.05-.109-.09-.169-.126-.698-.418-.817-1.088-.81-1.823.007-.768.033-1.539-.02-2.304-.051-.733.013-1.397.552-1.953.557-.575.584-1.28.335-1.969-.444-1.225-.695-2.417.007-3.641.128-.224.081-.549.115-.827.11-.902.249-1.803.32-2.708.06-.764.227-1.59.016-2.289-.331-1.097-.715-2.106-.182-3.248.123-.265-.063-.674-.108-1.017-.276-2.095-.106-4.204.416-6.203.362-1.388.587-2.702.507-4.126-.089-1.605-.105-3.226.015-4.828.126-1.676.43-3.341.696-5.004.188-1.175.359-2.363.688-3.502.395-1.366.595-2.74.634-4.152.015-.56-.083-1.201.151-1.662.758-1.49.813-3.129,1.045-4.703.327-2.218,1.316-4.313,1.193-6.609-.014-.265.084-.566.215-.805.943-1.724,1.147-3.581,1.123-5.508-.013-1.047-.017-2.155.551-3.079.795-1.293,1.093-2.718,1.419-4.161.401-1.774,1.162-3.464,1.234-5.317.005-.136.051-.284.121-.401,1.06-1.797,1.422-3.778,1.557-5.822.005-.069.011-.147.043-.205,1.121-2.051,1.378-4.403,2.251-6.529.855-2.083,1.671-4.168,2.267-6.34.204-.744.447-1.481.733-2.198,1.637-4.107,3.292-8.206,4.944-12.307.105-.26.244-.506.362-.761,1.532-3.309,3.067-6.616,4.592-9.928.293-.637.673-1.269.795-1.942.245-1.354.856-2.512,1.586-3.638.267-.412.49-.853.724-1.285,2.412-4.443,4.821-8.888,7.236-13.329.167-.307.383-.588.578-.881,1.595-2.395,3.155-4.815,4.798-7.177,1.362-1.958,2.679-3.978,4.277-5.733,1.564-1.718,3.009-3.477,4.324-5.398,3.17-4.631,6.276-9.321,10.108-13.459.237-.256.476-.529.638-.835.704-1.33,1.789-2.341,2.836-3.374,1.097-1.082,2.255-2.103,3.405-3.13,4.25-3.796,8.709-7.323,13.517-10.389,2.841-1.812,5.638-3.714,8.591-5.326,5.65-3.084,11.737-5.042,18.008-6.42,3.857-.848,7.764-1.333,11.719-1.041,3.081.227,6.16.521,9.228.885,3.082.365,6.088,1.105,8.94,2.35,1.764.77,3.395.583,5.032-.324.796-.441,1.621-.844,2.467-1.177,3.668-1.448,7.476-2.449,11.302-3.364,3.833-.916,7.714-1.526,11.672-1.592,4.737-.079,9.392.557,14.005,1.55,9.665,2.079,18.896,5.41,27.782,9.723,4.618,2.241,9.104,4.696,13.172,7.865.937.73,2.023,1.266,3.029,1.908.531.339,1.048.701,1.552,1.078,1.799,1.345,3.6,2.689,5.38,4.058.608.467,1.167.999,1.735,1.516.932.848,1.846,1.715,2.78,2.561.676.612,1.412,1.162,2.051,1.809,3.158,3.2,6.282,6.433,9.443,9.631.705.713,1.223,1.514,1.671,2.403.47.933,1.055,1.812,1.633,2.687.425.643.934,1.231,1.38,1.861,3.291,4.642,6.328,9.45,9.373,14.254,1.055,1.665,2.082,3.337,2.723,5.217.09.263.249.503.383.749,1.911,3.509,4.173,6.826,5.755,10.516.107.25.292.493.501.669,1.009.855,1.278,2.014,1.239,3.232-.036,1.102.326,2.059.719,3.042.763,1.91,1.882,3.609,3.069,5.264.542.756,1.013,1.532,1.151,2.454.323,2.154,1.327,4.141,1.516,6.328.03.342.18.678.296,1.009,1.043,2.983,2.078,5.969,3.141,8.945.543,1.52,1.241,2.991,1.688,4.537,1.067,3.697,2.717,7.233,3.132,11.114.015.137.079.269.117.404,1.384,4.86,2.892,9.685,4.014,14.618,1.012,4.45,2.157,8.872,2.722,13.414.077.623.283,1.23.434,1.843.319,1.293.723,2.572.941,3.881.311,1.868.459,3.763.73,5.64.18,1.248.47,2.48.679,3.724.453,2.695.919,5.389,1.312,8.093.201,1.388.247,2.799.378,4.197.178,1.888.371,3.774.557,5.661.13,1.326.23,2.655.395,3.977.235,1.88.513,3.755.779,5.631.099.695.19,1.393.328,2.081.565,2.818,1.18,5.628.555,8.528-.086.401-.013.84.005,1.261.12,2.947.253,5.894.364,8.841.085,2.245.066,4.494.629,6.7.207.811.218,1.67.341,2.504.106.721.053,1.411-.364,2.024-.797,1.172-.768,2.351-.131,3.58.6,1.157.737,2.417.629,3.692-.101,1.189-.236,2.38-.447,3.553-.202,1.121-.275,2.218-.075,3.347.109.616.139,1.26.1,1.885-.113,1.814-.289,3.625-.416,5.439-.029.416.04.839.067,1.258.032.49.124.983.093,1.469-.147,2.313-.255,4.631-.511,6.933-.363,3.276-.47,6.575-1.12,9.829-.602,3.016-.341,6.17-1.325,9.142-.022.065-.016.14-.03.208-.385,1.928-.761,3.859-1.167,5.783-.085.405-.215.83-.44,1.17-.641.968-.887,2.055-1.089,3.165-.364,2.002-.715,4.007-1.092,6.007-.325,1.722-.654,3.444-1.034,5.154-.143.646-.28,1.361-1.138,1.801-.358-.78-.663-1.446-.962-2.097-.136.038-.244.037-.261.077-.479,1.083-.967,2.166-.922,3.39.03.81-.266,1.453-.767,2.11-.63.827-1.206,1.75-1.561,2.72-.819,2.24-1.64,4.468-2.842,6.539-.136.235-.15.538-.251.798-.813,2.094-1.668,4.163-3.391,5.717-.486.438-.546.942-.237,1.515.165.305.31.624.422.951.038.111-.051.265-.108.515-.471.246-1.009.528-1.493.781-.352,1.264-.508,2.42-.561,3.628-.079,1.8.002,3.648-.921,5.34-.281.515-.208,1.223-.298,1.842-.036.248-.075.496-.119.789-.862-.143-1.117-.741-1.399-1.289-.31-.602-.223-1.224-.017-1.843.266-.797.546-1.591.763-2.402.087-.324.083-.715-.361-.868-1.09.992-1.874,2.158-2.23,3.426-.285,1.014-.404,2.036-.397,3.112.01,1.599-.316,3.193.226,4.781.101.295-.204.728-.436,1.454-.239-.593-.341-.823-.427-1.06-.214-.594-.367-1.218-.654-1.774-.136-.263-.511-.547-.793-.564-.94-.056-1.812.554-2.079,1.453-.439,1.476-.849,2.94-.766,4.539.106,2.028-.398,3.943-2.114,5.257-.972.744-1.253,1.691-1.061,2.785.364,2.071-.458,4.019-.546,6.041-.016.361-.207.843-.773.811-.064-.039-.164-.066-.171-.109-.304-1.776-.925-3.523-.335-5.369.204-.638-.054-1.153-.446-1.254-.549-.142-.955.124-1.295.504-.549.613-.717,1.357-.65,2.155.035.419.189.835.173,1.248-.019.478-.109.973-.282,1.416-.076.194-.449.398-.662.375-.208-.023-.519-.313-.548-.518-.065-.475.008-.97.034-1.457.032-.592-.16-1.099-.53-1.555-.36-.444-.977-.48-1.23.001-.324.616-.544,1.286-.829,1.923-.453,1.012-.601,2,.036,3.011.1.159-.049.475-.113.931-.452-.312-.714-.513-.994-.683-.747-.453-1.052-.375-1.527.387-.111.178-.173.387-.286.563-.702,1.089-1.854,1.308-2.867.529-.276-.212-.561-.452-.74-.743-.765-1.247-1.776-2.366-2.021-3.891-.053-.327-.255-.63-.41-.994-.597-.034-1.139-.064-1.639-.093q-1.01-1.641-2.827-1.769c-.276-.019-.554-.003-.86-.003-.353.373-.671.744-1.026,1.075-.355.331-.823.264-1.076-.145-.288-.466-.545-.951-.841-1.475-.554.08-1.028.183-1.505.206-.418.02-.842-.375-.841-.79,0-.486.109-.971.124-1.458.011-.354-.058-.706-.625-.679-.313.494-.601,1.058-.989,1.541-.802.998-2.023,1.287-3.202.875-.786-.274-1.591-.492-2.517-.775-.432-.541-.71-1.38-1.577-1.736-.619-.254-.716-.854-.466-1.432.325-.75.086-1.358-.339-1.962-.202-.287-.371-.596-.559-.893-.273-.431-.644-.666-1.152-.83-1.876-.605-3.691-1.331-4.587-3.317-.083-.184-.235-.399-.407-.466-.376-.147-.782-.272-1.181-.287-.428-.016-.786.582-.541.919.489.671.994,1.363,1.62,1.895.758.645,1.472,1.288,1.947,2.178.163.305.399.583.645.83,1.5,1.506,2.746,3.183,3.597,5.143.273.628.739,1.001,1.468,1.003.262,0,.523.101.755.149.199.978.231,1.926.59,2.728.741,1.659,1.504,3.328,2.916,4.588.625.558,1.154,1.228,1.696,1.873.916,1.09,1.994,1.956,3.24,2.652.853.477,1.671,1.044,2.421,1.671,1.992,1.665,3.812,3.536,6.016,4.948.408.261.733.653,1.093.988,3.801,3.538,7.403,7.285,11.271,10.753.157.14.295.301.442.452,4.18,4.258,8.224,8.644,12.229,13.065.895.988,1.827,1.943,2.744,2.911,1.156,1.219,2.31,2.439,3.474,3.651.143.149.331.261.512.366,2.564,1.484,4.848,3.351,7.136,5.212,2.395,1.948,4.932,3.73,6.944,6.12.74.879,1.679,1.457,2.863,1.639.614.094,1.218.335,1.795.584,2.315.999,4.619,2.026,6.924,3.048.385.171.785.331,1.128.569,1.964,1.364,4.054,2.484,6.276,3.364.455.18.878.558,1.336.594,2.15.17,4.021,1.004,5.832,2.116.949.583,2.022.976,3.063,1.396,2.407.971,4.783,2.047,7.254,2.82,3.413,1.068,6.899,1.9,10.357,2.823.61.163,1.229.313,1.853.4,2.862.397,5.642,1.106,8.358,2.087.857.309,1.734.61,2.627.761,2.78.47,5.43,1.423,8.153,2.099,1.842.457,3.661.988,5.359,1.863ZM173.082,13.548c-.935.524-1.685.901-2.389,1.349-.751.478-1.511.537-2.399.487-2.379-.134-4.767-.159-7.151-.124-1.61.024-3.222.179-4.824.358-1.32.148-2.736.17-3.916.688-2.041.895-4.154,1.226-6.312,1.531-1.79.253-3.655.286-5.186,1.503-.406.323-.958.308-1.382-.033-.667-.535-1.391-.599-2.186-.429-.201.043-.42.018-.629-.002-.536-.052-.931-.491-.822-1.011.158-.753.354-1.505.617-2.227.111-.305.388-.609.67-.783,1.015-.625,2.056-1.211,3.104-1.779.515-.279,1.082-.334,1.622-.054,1.329.687,2.734.587,4.124.354,2.522-.422,5.028-.348,7.547.005,1.458.204,2.937.444,4.397.08,1.242-.309,2.488-.426,3.758-.39.856.025,1.686-.061,2.426-.549.726-.478,1.56-.572,2.387-.753,1.369-.299,2.729-.669,4.053-1.128,1.111-.385,1.578-1.075,1.428-2.059-.19-1.243-.388-2.511-.811-3.686-.95-2.634-1.592-5.388-2.949-7.87-.066-.121-.094-.264-.136-.398-.768-2.476-1.486-4.968-2.316-7.423-.922-2.725-1.94-5.418-2.929-8.121-.48-1.311-1.259-2.516-1.31-3.979-.011-.323-.269-.637-.412-.955-.604-1.343-1.343-2.644-1.769-4.041-.372-1.22-.885-2.131-2.064-2.715-1.113-.551-1.75-1.625-2.253-2.707-1.153-2.48-2.232-4.994-3.329-7.5-.319-.729-.739-1.37-1.457-1.742-.838-.434-1.431-1.118-2.015-1.824-1.119-1.353-2.164-2.733-2.907-4.361-.637-1.394-1.612-2.63-2.321-3.997-.428-.824-.904-1.578-1.556-2.229-.796-.794-1.567-1.614-2.385-2.384-1.373-1.293-2.503-2.868-4.287-3.692-.238-.11-.426-.367-.589-.59-.977-1.339-2.364-2.179-3.704-3.078-1.886-1.266-3.971-2.113-6.134-2.732-2.122-.608-4.098-1.923-6.47-1.438-.192.039-.412-.079-.621-.095-1.737-.134-3.437-.729-5.222-.361-.361.074-.805-.16-1.188-.311-.381-.151-.732-.375-1.033-.534-2.604,1.105-1.895,1.153-5.358.698-2.521-.331-5.042-.275-7.54.304-1.023.237-2.074.352-3.109.539-.716.129-1.411.111-2.029-.307-.724-.49-1.436-.477-2.178-.06-.244.137-.507.242-.764.355-1.39.613-2.776.945-4.262.234-.852-.407-1.802-.365-2.688-.091-1.541.475-3.063,1.014-4.579,1.562-.317.114-.66.328-.847.596-.747,1.071-1.871,1.676-2.847,2.47-1.002.816-2.006,1.486-3.333,1.647-1.093.133-1.963.761-2.612,1.639-1.67,2.256-3.457,4.442-4.294,7.201-.161.53-.419,1.051-.726,1.514-1.794,2.707-3.09,5.66-4.352,8.633-.274.646-.58,1.278-.888,1.909-.801,1.638-1.675,3.243-2.395,4.916-.439,1.02-.709,2.127-.941,3.218-.278,1.308-.551,2.6-1.12,3.829-.559,1.208-1.05,2.452-1.492,3.708-.514,1.459-.985,2.92-1.876,4.22-.347.506-.526,1.144-.704,1.744-.423,1.428-1.005,2.775-1.896,3.974-.765,1.029-1.286,2.169-1.646,3.395-.615,2.089-1.215,4.183-1.876,6.257-1.259,3.948-2.556,7.883-3.838,11.824-.152.467-.342.926-.443,1.404-.141.669.213,1.285.883,1.474.534.151,1.102.222,1.658.246.985.043,1.722.504,2.37,1.202,1.8,1.938,1.665,2.885-.598,4.275-.531.326-1.197.638-1.473,1.137-.891,1.617-2.015,3.032-3.255,4.38-.276.3-.414.728-.606,1.102-.256.499-.46,1.03-.762,1.498-.885,1.375-1.53,2.833-1.779,4.461-.074.484-.241.954-.342,1.435-.192.91-.597,1.684-1.186,2.425-1.671,2.102-1.736,4.35-.346,6.625.473.774.984,1.559,1.261,2.41.428,1.315,1.228,2.353,2.08,3.383.576.697,1.319,1.028,2.205,1.064.912.037,1.837-.02,2.734.111,1.015.149,1.963.057,2.875-.374.766-.362,1.445-.351,2.172.159.373.262.939.477,1.357.398.944-.179,1.786-.064,2.664.284.595.236,1.101-.066,1.289-.732.209-.739.308-1.509.455-2.265.064-.332.041-.719.528-.794.795.371.937,1.122,1.131,1.884.276,1.086.727,1.407,1.78,1.36.417-.018.839-.093,1.242-.206.573-.16,1.121-.153,1.626.159,1.036.638,1.855.385,2.552-.548.145-.194.366-.332.625-.56.197.537.325.934.487,1.317.403.95,1.158,1.374,2.164,1.38.28.002.567-.096.837-.057.4.057.886.081,1.165.32.878.75,1.934,1.128,2.943,1.617,2.294,1.113,4.428,2.467,6.006,4.517,1.027,1.334,1.962,2.739,2.908,4.134.273.402.469.866.646,1.322.641,1.653.307,2.52-1.264,3.223-1.833.82-3.833.75-5.767,1.024-.2.028-.454.009-.617-.093-1.32-.822-2.726-.376-4.107-.312-.644.03-1.259.153-1.766.585-.672.572-1.36.554-2.151.21-1.212-.527-2.443-.587-3.638.131-.144.086-.384.012-.704.012.101-.961-.363-1.631-.928-2.28-.552-.634-1.072-1.306-1.534-2.009-1.577-2.402-2.267-4.966-1.311-7.804.212-.63.806-1.346.077-1.914-.633-.494-1.353-.027-1.984.247-1.224.531-2.422,1.122-3.641,1.665-2.33,1.038-3.023,2.232-2.816,4.804.06.752.317,1.356.937,1.794.917.648,1.79,1.373,2.76,1.928,1.144.654,2.24,1.45,3.657,1.519.796.039,1.456.492,1.987,1.089.228.257.492.524.233,1.053-.248.047-.588.201-.898.154-1.455-.22-2.954-.335-4.342-.782-4.241-1.366-8.543-1.504-12.915-.993-2.016.236-3.808-.732-5.699-1.164-.297-.068-.535-.434-.778-.683-.196-.2-.34-.451-.54-.646-.808-.787-1.782-.921-2.657-.231-.595.469-1.14,1.056-1.553,1.691-1.146,1.764-2.218,3.576-3.301,5.38-.178.296-.329.639-.376.976-.209,1.491-.879,2.815-1.493,4.15-.416.905-.793,1.79-.776,2.809.012.74-.237,1.38-.866,1.826-1.136.807-1.466,2.007-1.605,3.298-.151,1.396-.18,2.818-.481,4.181-.314,1.421-.889,2.784-1.35,4.172-1.317,1.295-1.498,2.968-1.52,4.676-.034,2.529-.048,5.059-.032,7.588.006.98.081,1.964.189,2.939.324,2.93.718,5.848.662,8.812-.026,1.394.13,2.803.328,4.188.218,1.527.692,3.021.85,4.551.215,2.086.281,4.162.797,6.234.539,2.164.705,4.433.91,6.668.474,5.186,1.626,10.244,2.752,15.309.06.272.176.533.285.792,1.04,2.456,2.156,4.883,3.103,7.374.77,2.025,1.701,4.005,2.022,6.191.088.601.395,1.202.722,1.728.814,1.311,1.646,2.611,2.772,3.701.441.428.733,1.014,1.073,1.541.303.472.522,1.009.876,1.435,1.79,2.159,3.608,4.296,5.431,6.428.225.263.548.438.806.675.308.285.628.566.883.895,1.457,1.882,3.185,3.568,4.199,5.774.115.251.281.5.481.688,1.577,1.484,2.729,3.39,4.652,4.542.572.343.966.994,1.418,1.524.863,1.013,1.704,2.044,2.563,3.06.453.536.909,1.069,1.391,1.579.575.608,1.142,1.231,1.775,1.775,1.548,1.33,3.065,2.664,4.127,4.458.419.709,1.007,1.383,1.668,1.867,1.1.805,1.949,1.797,2.757,2.869.673.893,1.398,1.762,2.197,2.543,1.354,1.323,2.821,2.529,4.169,3.857,1.057,1.041,2.135,2.016,3.45,2.735.732.4,1.364.983,2.047,1.475.511.368,1.002.779,1.554,1.075,2.783,1.492,5.56,2.999,8.388,4.401,1.119.555,2.365.854,3.555,1.266.528.183,1.095.286,1.584.543,2.088,1.098,4.363,1.548,6.65,1.907,3.049.478,6.128.771,9.165,1.309,2.935.52,5.881.552,8.819.377,1.958-.117,3.91-.337,5.879-.359.755-.008,1.513-.239,2.261-.407,1.845-.414,3.676-.9,5.53-1.262,1.461-.285,2.863-.692,4.167-1.413,1.659-.916,3.295-1.879,4.98-2.745,1.496-.769,3.071-1.381,4.261-2.651.278-.296.716-.436,1.062-.676.922-.639,1.853-1.268,2.747-1.946,1.62-1.23,3.189-2.528,4.827-3.732,2.262-1.662,4.573-3.259,6.854-4.896.455-.326.903-.675,1.3-1.069,2.293-2.278,4.614-4.529,6.838-6.873,2.271-2.392,4.094-5.162,6.27-7.648,1.38-1.577,2.6-3.304,4.045-4.84.48-.51.92-1.061,1.356-1.61,2.582-3.255,4.737-6.796,6.903-10.329,3.464-5.652,5.921-11.786,8.522-17.85.103-.241.071-.54.097-.77-.441-.433-.825-.809-1.259-1.235.251-.58.38-1.161.713-1.579.517-.651.644-1.379.753-2.146.014-.102.189-.181.309-.288.347.174.701.351,1.138.57.666-1.122,1.101-2.18.418-3.374-.228-.399-.249-.75-.126-1.192.145-.525.273-1.102.203-1.629-.099-.747-.015-1.387.449-1.981.366-.469.501-1.003.364-1.587-.22-.938.063-1.796.341-2.676.38-1.201.718-2.418,1.006-3.645.385-1.64.718-3.292,1.049-4.944.537-2.685,1.152-5.359,1.553-8.065.401-2.704.576-5.441.858-8.163.152-1.465.403-2.926.458-4.394.062-1.639.449-3.188.894-4.746.308-1.077.62-2.174.731-3.282.139-1.396.123-2.8.58-4.157.128-.38.065-.831.056-1.249-.031-1.399-.09-2.797-.465-4.158.366-1.895-.203-3.774-.102-5.667.034-.628.048-1.283-.087-1.89-.653-2.943-.731-5.994-1.724-8.874-.388-1.127-.649-2.298-.969-3.448-.248-.89-.412-1.787-.113-2.696.244-.74-.011-1.322-.405-1.964-.804-1.312-1.589-2.652-2.204-4.058-.814-1.861-1.433-3.807-2.183-5.697-.414-1.043-.904-2.057-1.401-3.064-.334-.678-.839-1.177-1.68-.861-.822.308-1.357-.11-1.835-.656-.693-.792-1.323-1.639-2.032-2.415-.543-.593-.875-1.247-1.012-2.038-.193-1.115-.535-2.187-1.212-3.117-.674-.925-1.04-1.974-1.367-3.059-.424-1.411-.911-2.805-1.433-4.183-.645-1.702-1.34-3.386-2.037-5.068-1.101-2.656-2.152-5.337-3.361-7.944-.714-1.54-1.317-3.097-1.718-4.738-.025-.104.089-.242.14-.37.599-.168.703.935,1.484.514-.241-1.397-.83-2.616-1.834-3.641-1.078-1.1-2.145-2.211-3.226-3.308-.386-.391-.802-.754-1.35-1.266ZM173.631,220.724c-.23-.2-.456-.303-.524-.471-.516-1.267-1.493-2.207-2.309-3.253-1.334-1.71-2.704-2.084-4.804-1.457-.468.14-.954.278-1.436.296-.951.036-1.76.394-2.562.863-1.278.748-2.644,1.283-4.072,1.701-.931.273-1.849.683-2.677,1.188-1.085.662-2.149,1.308-3.407,1.609-.535.128-1.082.367-1.524.692-2.069,1.522-4.493,2.294-6.8,3.317-2.88,1.276-5.903,2.163-8.71,3.677-4.084,2.204-8.585,3.452-12.988,4.892-.394.129-.828.14-1.243.204-2.212.339-4.427.664-6.635,1.029-.407.067-.786.295-1.18.443-1.839.691-3.674,1.397-5.524,2.059-.455.163-.962.265-1.442.253-1.431-.036-2.765.299-4.115.745-1.194.395-2.457.586-3.699.824-.405.078-.841.058-1.256.017-3.291-.328-6.566-.461-9.868.038-1.358.205-2.493.536-3.633,1.378-1.776,1.312-3.767,2.276-6.052.984-.732-.414-1.493-.301-2.225.062-.315.156-.624.323-.94.477-.957.466-1.902.417-2.832-.079-.372-.198-.732-.419-1.107-.611-.853-.435-1.746-.509-2.66-.236-.403.12-.793.286-1.193.418-.564.186-1.146.183-1.612-.188-1.013-.807-2.179-.87-3.392-.856-1.613.019-3.216.048-4.773-.594-.531-.219-1.255-.129-1.85.002-.817.18-1.591.545-2.391.809-.727.24-1.462.459-2.197.672-1.894.549-3.768,1.214-5.393,2.31-1.083.73-1.907,1.843-2.847,2.784-.695,2.036-2.32,3.725-2.248,6.054.008.264-.137.544-.249.799-.545,1.241-.751,2.544-.843,3.89-.076,1.119-.354,2.183-.976,3.183-.689,1.108-.596,2.544-1.322,3.676-.099.154-.049.413-.043.623.043,1.664.41,3.208,1.691,4.393.606.561,1.015,1.161.637,2.036-.245.566-.028,1.058.235,1.591,1.051,2.129,2.367,4.159,2.631,6.605.022.206.09.418.184.603.888,1.755.899,3.656.958,5.554.017.556.09,1.116.195,1.663.451,2.343.93,4.68,1.383,7.023.147.758.286,1.522.355,2.289.101,1.129.084,2.218-.711,3.197-.318.392-.465,1.044-.443,1.567.041.971.236,1.939.42,2.898.145.755.41,1.487.555,2.243.663,3.443,1.19,6.912,2.043,10.32.562,2.247,1.089,4.51,1.46,6.794.289,1.782.982,3.362,1.865,4.885,1.162,2.005,2.36,3.988,3.542,5.982.715,1.206,1.329,2.485,2.159,3.605,2.445,3.303,4.33,6.881,5.614,10.78.22.667.422,1.341.627,2.013.579,1.897,1.432,3.642,2.632,5.242,1.135,1.514,2.104,3.152,3.206,4.692.979,1.368,2.034,2.683,3.07,4.011,1.121,1.437,2.275,2.848,3.379,4.297.551.723.997,1.524,1.536,2.257.666.905,1.447,1.731,2.059,2.669,1.817,2.789,4.026,5.232,6.528,7.399,1.696,1.469,2.806,3.277,3.671,5.308.686,1.611,1.401,3.229,2.297,4.728,1.187,1.984,2.445,3.95,3.888,5.751,1.967,2.454,3.598,5.2,6.047,7.255.155.13.305.308.374.494.866,2.337,2.472,4.217,3.842,6.243.157.232.314.471.509.669.555.567,1.266.603,1.881.08,1.44-1.224,2.843-2.492,4.305-3.688,1.028-.841,2.143-1.576,3.192-2.393.435-.339.866-.721,1.18-1.167.743-1.056,1.707-1.846,2.743-2.587.737-.528,1.474-1.086,2.097-1.74,4.118-4.32,8.19-8.685,12.31-13.002,1.948-2.041,3.543-4.344,5.154-6.64,1.491-2.126,2.98-4.253,4.48-6.373,1.588-2.245,3.16-4.49,3.353-7.374.023-.339.151-.698.321-.996,1.042-1.825,1.661-3.849,2.856-5.618,1.128-1.67,1.811-3.603,2.957-5.31,1.161-1.728,1.806-3.794,2.801-5.646,1.727-3.217,3.549-6.383,5.334-9.568.103-.183.223-.36.357-.522,1.523-1.837,2.987-3.729,4.596-5.488,1.442-1.575,2.168-3.588,3.46-5.244.202-.259.245-.654.325-.994.192-.82.334-1.652.548-2.466.176-.671.348-1.362.658-1.975,1.312-2.599,1.772-5.421,2.345-8.14-.128-.154-.163-.222-.219-.258-.458-.305-1.235.014-1.478-.627-.217-.573-.275-1.212-.357-1.829-.036-.271,0-.569.075-.835.299-1.063.1-2.088-.177-3.115-.238-.882-.406-1.788-.709-2.646-.659-1.863-.617-3.707-.112-5.594.379-1.417.859-2.829.679-4.344-.031-.266.066-.558.15-.824.673-2.128.833-4.428,2.163-6.338.234-.336.326-.775.469-1.171.406-1.122.781-2.255,1.211-3.368.785-2.031,1.633-4.037,2.386-6.079.287-.779.486-1.619.55-2.445.195-2.516.577-5.024.439-7.56-.019-.349.012-.703.045-1.052.256-2.653.516-5.306.782-7.958.035-.348.035-.73.183-1.031.786-1.597.656-3.297.531-4.97-.103-1.385-.501-2.748-.595-4.133-.094-1.392.081-2.8.039-4.198-.066-2.176-.179-4.351-.344-6.522-.122-1.609-.363-3.21-.542-4.815-.257-2.302-.494-4.607-.762-6.908-.219-1.884-.466-3.764-.713-5.645-.052-.394-.161-.781-.294-1.409-.628.507-1.075.869-1.543,1.247ZM62.491,381.472c-4.259.022-6.457,2.496-7.326,5.856-.108.417.033,1.013.274,1.387.951,1.468,1.961,2.861,3.503,3.85,1.698,1.09,3.539,1.666,5.462,2.097,1.878.421,3.653.072,5.266-.897,2.202-1.324,3.426-3.726,2.121-6.494-.654-1.385-1.621-2.43-2.859-3.285-2.058-1.421-4.264-2.415-6.441-2.514ZM72.035,60.443c1.341-.205,2.578-.384,3.81-.586.874-.144,1.222-.606.936-1.485-.386-1.186-.891-2.335-1.398-3.477-.085-.193-.452-.388-.661-.362-.211.026-.492.294-.562.513-.49,1.553-1.304,2.916-2.31,4.178-.085.107-.171.234-.197.364-.038.193-.088.431-.009.587.077.15.311.219.39.269ZM65.019,51.472c.834-.024,1.576-.484,1.979-1.154.217-.361.075-.927-.333-1.042-.924-.262-1.857-.536-2.805-.659-.737-.095-1.223.795-.875,1.472.448.871,1.178,1.322,2.034,1.383ZM244.782,172.921c-1.976,1.352-2.869,3.136-2.841,5.573,1.182-.303,1.377-1.34,1.985-1.951,1.003-1.007.531-2.373.856-3.622ZM-43.761,90.303c-.668,1.872-.896,3.365-.762,4.639.029.275.059.573.188.806.118.214.369.356.562.529.16-.195.448-.383.46-.587.099-1.671-.025-3.331-.448-5.387ZM173.694.02c-.259-.737-.412-1.243-.612-1.729-.472-1.152-.962-2.298-1.456-3.441-.051-.119-.167-.232-.282-.294-.11-.059-.274-.094-.383-.055-.105.038-.204.173-.244.288-.043.123-.063.295-.009.403.738,1.484,1.484,2.964,2.253,4.432.07.133.313.176.733.396ZM65.308,57.902c.109-.02.386-.042.644-.125.463-.148.757-.691.656-1.163-.104-.484-.471-.653-.905-.712-.203-.028-.415-.023-.62-.003-.855.083-1.418.434-1.483.91-.073.537.594,1.005,1.709,1.093ZM248.152,159.772c-.141-.121-.353-.448-.605-.483-.36-.05-.628.25-.647.646-.018.363.087.688.498.789.386.095.736-.27.754-.953ZM184.918,28.327c-.447.978-.473,1,.01,1.439.096.087.338.013.7.013-.278-.567-.494-1.009-.71-1.451ZM165.826-19.431c.097-.053.193-.107.29-.16-.032-.184-.017-.397-.108-.545-.121-.198-.324-.345-.67-.693.039.444.011.638.079.788.1.22.269.408.408.609ZM176.11,2.391c-.128-.138-.235-.287-.378-.384-.036-.024-.187.12-.285.188.103.144.198.298.322.422.016.016.186-.122.341-.226ZM-37.854,289.941c-.161.127-.33.224-.44.366-.034.044.091.212.144.323.161-.097.336-.179.472-.304.027-.025-.093-.211-.175-.386ZM139.33,384.555c.075-.095.206-.19.208-.286.001-.097-.126-.197-.198-.295-.1.127-.2.255-.3.383.096.066.193.132.29.198ZM254.989,290.438c-.056-.105-.088-.25-.176-.301-.052-.031-.19.084-.29.134.055.106.086.252.173.304.052.031.192-.085.292-.136Z" fill="#feccff"/>
        <path d="M137.485,166.358c.029.59.049.996.067,1.364-.348.39-.674.245-.978.051-.413-.265-.795-.579-1.215-.832-.433-.262-.445-.241-1.687-.057-.066.367-.111.775-.216,1.166-.244.909-.855,1.404-1.69,1.131-1.003-.328-1.886-.209-2.862.075-.556.162-1.258.026-1.842-.151-1.231-.373-2.473-.475-3.745-.462-1.545.016-3.09-.025-4.634-.004-1.535.021-3.083-.12-4.551.587-.608.293-1.039.006-1.36-.611-.386-.742-.711-1.533-1.204-2.198-.572-.772-1.377-.828-2.261-.361-.102,1.143,1.631,1.683.965,3.034-.724-.461-1.309-1.016-1.997-1.218-.681-.2-1.467-.044-2.416-.044.344-.683.609-1.209.947-1.88-.379-.109-.696-.29-1.001-.272-2.545.146-5.026-.441-7.542-.621-.49-.035-.978-.092-1.468-.125-1.287-.086-2.537-.017-3.502.997-.344-.071-.64-.071-.875-.192-.867-.447-1.744-.461-2.658-.191-.471.139-.956.228-1.433.348-.631.159-1.261.192-1.847-.126-.853-.463-1.748-.499-2.661-.3-1.059.231-2.108-.127-3.134-.057-2.289.158-4.46-.387-6.658-.813-1.101-.213-2.198-.443-3.294-.681-.198-.043-.428-.118-.56-.257-.697-.734-.563-1.699-.632-2.589-.049-.633.429-1.016.94-1.286.305-.161.649-.282.99-.338,1.945-.315,3.844-.795,5.674-1.534.065-.026.133-.068.199-.067,1.643.036,2.896-.781,4.171-1.709.644-.468,1.566-.576,2.378-.786,2.78-.722,5.593-1.324,8.253-2.457.641-.273,1.366-.346,2.013-.61.708-.288,1.422-.619,2.041-1.06.876-.624,1.78-.795,2.787-.506,1.147.329,2.289.677,3.431,1.023.938.284,1.865.606,2.811.861,1.628.438,2.158,1.034,2.365,2.775.041.348.038.704.101,1.047.166.901.755,1.248,1.491.752.871-.587,1.79-.763,2.792-.732,1.21.038,2.299-.295,3.447-.726,2.335-.878,4.707-1.863,7.337-1.221.509.124,1.149.06,1.636-.142,1.155-.477,2.252-.265,3.264.226,3.236,1.571,6.764,2.332,10.066,3.717.955.401,2.041.489,3.065.728,1.366.319,2.736.624,4.094.978.993.259,1.557.926,1.567,1.979.008.841.024,1.687-.052,2.522-.077.836-.592,1.177-1.291.784-1.017-.571-1.954-.512-3.022-.157-1.455.483-2.966.799-4.605,1.227Z" fill="#feccff"/>
        <path d="M155.333,62.454c1.707-.909,2.844-1.933,4.552-1.708,1.017.134,1.879-.413,2.669-1.052,1.086-.878,2.107-1.867,3.6-2.366.415.185.91.405,1.355.604.2-.058.367-.058.461-.141.417-.371.844-.739,1.207-1.16.359-.417.399-.881-.046-1.308-.148-.142-.261-.321-.463-.576.231-.535.491-1.097.716-1.673.198-.508.085-.981-.318-1.343-.788-.708-1.635-1.333-2.685-1.605-1.698-.44-3.398-.871-5.098-1.301-.203-.051-.413-.086-.622-.105-.671-.059-1.015.342-.899,1.063.056.346.142.688.235,1.026.704,2.554.146,4.866-1.368,6.977-.572.797-1.187,1.567-1.828,2.309-.266.308-.617.637-.991.743-1.738.494-3.394,1.294-5.303,1.133-1.602-.135-3.224-.014-4.836-.048-.907-.019-1.813-.128-2.72-.186-.418-.026-.859-.116-1.251-.021-1.42.343-2.801-.045-4.181-.204-1.489-.172-2.464-1.946-1.987-3.357.045-.132.104-.261.171-.384,1.752-3.229,3.673-6.313,6.91-8.315.952-.589,1.901-1.192,2.614-2.097.407-.516.992-.729,1.638-.858.753-.149,1.513-.336,2.219-.628.978-.405,1.924-.857,3.023-.752.134.013.296-.007.41-.073,1.419-.821,2.989-.474,4.494-.561,1.193-.07,1.319-.073,1.645-1.151.098-.323.158-.658.224-.936.556-.166.726.188.944.446.316.374.58.808.948,1.12.304.257.736.538,1.095.519,1.106-.059,2.278-.033,3.17-.871.762-.716,1.514-1.215,2.618-.635.886.465,1.411,1.107,1.494,2.106.004.054.09.1.136.149.617.291,1.091-.082,1.56-.358.689-.405,1.415-.588,2.208-.572.717.014,1.389.139,1.983.58,1.673,1.243,3.685,1.675,5.608,2.315.996.332,2.021.583,3.006.943.444.162.929.418,1.211.777.624.795,1.409,1.337,2.248,1.864.886.557.912,1.379.129,2.089-.253.23-.56.455-.881.546-1.112.316-2.049.918-2.883,1.683-.654.6-1.394.914-2.277.936-1.286.032-2.27.584-2.98,1.681-.515.796-1.303,1.245-2.219,1.499-.47.13-.942.302-1.368.537-1.149.635-2.322.676-3.399-.024-1.045-.679-1.949-.621-2.896.105-.737.566-1.603.834-2.488,1.087-1.618.463-3.212,1.006-4.829,1.473-.599.173-1.234.319-1.851.316-1.097-.007-2.193-.137-3.837-.255ZM141.528,53.076c-.545.456-.959.65-1.133.973-.79,1.474-1.494,2.989-2.92,4.006-.336.24-.243.815.065,1.121.59.586,1.33.748,2.115.708,1.35-.07,2.619.143,3.848.751.798.394,1.365.305,1.517-.051.228-.535-.107-.93-.378-1.33-.117-.172-.264-.323-.4-.483-1.056-1.245-1.779-2.654-2.141-4.253-.089-.392-.295-.757-.573-1.443ZM153.799,50.001c.021-.442-.404-1.025-.878-1.006-.823.033-1.661.114-2.456.319-.64.165-.801,1.022-.385,1.567.457.599,1.06.921,1.815.789.87-.151,1.553-.593,1.882-1.463.024-.063.015-.138.021-.207ZM151.708,55.795c-.118.022-.431.005-.652.139-.27.164-.584.419-.662.697-.129.455.201.814.621.941.385.116.817.158,1.218.119.615-.06,1.026-.616.944-1.153-.07-.453-.463-.718-1.102-.742-.069-.003-.139,0-.367,0Z" fill="#feccff"/>
        <path d="M82.209,126.491c.956.404,1.387,1.076,1.929,1.601.716.694,1.479.885,2.486.757,1.664-.212,2.943-.996,3.822-2.334.906-1.379,2.138-2.309,3.666-2.643,1.914-.419,3.894-.643,5.801.192.696.305,1.392.609,2.118.927.218-1.859.21-1.83,1.842-1.35.663.195,1.373.335,2.059.326,1.612-.02,3.224-.115,4.832-.235,1.338-.1,1.496.005,1.668,1.415.024.198.115.389.213.707.338-.047.698-.012.97-.15,1-.509,1.967-1.082,2.953-1.619,2.569-1.398,5.515-.917,7.444,1.289.688.787,1.234,1.702,1.824,2.572.236.347.392.749.629,1.096.507.74,1.192.98,2.013.585.688-.33,1.316-.797,1.945-1.238.4-.28.736-.652,1.138-.927.136-.093.437-.088.576.004.142.094.205.342.253.534.032.127-.003.281-.041.414-.714,2.497-3.199,4.619-5.81,4.786-1.464.094-2.961.068-4.412-.131-2.645-.363-5.276-.792-7.959-.704-.418.014-.853-.005-1.257-.103-1.222-.298-2.348-.2-3.422.527-.816.552-1.745.549-2.63.186-1.777-.727-3.671-.928-5.527-1.296-1.404-.278-2.767-.186-4.126.389-1.289.545-2.647.931-3.985,1.354-.396.125-.825.178-1.242.196-1.769.077-3.511-.112-5.196-.676-2.737-.916-4.173-2.941-4.756-5.666-.038-.178.085-.391.182-.785Z" fill="#feccff"/>
        <path d="M75.334,17.866c-1.187.078-2.232.159-3.279.213-.931.048-1.794-.115-2.557-.736-.859-.699-1.884-.906-2.971-.74-.646.099-1.246.017-1.841-.251-.316-.142-.661-.239-1.003-.299-2.405-.42-4.821-.75-7.166-1.498-.685-.219-1.52-.042-2.275.047-.832.099-1.646.37-2.478.44-.453.038-.978-.093-1.383-.31-.636-.341-.654-1.184-.07-1.568.465-.307.956-.611,1.479-.785,1.457-.486,2.921-.97,4.413-1.327.958-.229,1.949-.128,2.856.378,1.002.56,2.066.755,3.23.711.893-.033,1.846.072,2.687.364,1.848.641,3.72.697,5.598.417,1.297-.193,2.489-.111,3.685.434.762.347,1.588.549,2.373.85,1.211.465,1.647,1.168,1.413,2.209-.209.925-1.085,1.524-2.228,1.511-.209-.002-.417-.051-.483-.059Z" fill="#feccff"/>
        <path d="M106.182,184.898c-.107-.019-.584-.111-1.064-.183-1.103-.167-2.203-.41-3.312-.468-2.674-.14-5.279-.651-7.834-1.4-.636-.187-1.186-.706-1.741-1.119-.559-.417-1.103-.865-1.593-1.359-.145-.146-.203-.581-.093-.727.125-.165.541-.285.731-.2,2.077.924,4.369.963,6.507,1.624.82.253,1.646.228,2.494.107.755-.108,1.53-.148,2.292-.114,1.815.081,3.626.286,5.442.325,2.45.053,4.903-.045,7.353.008.966.021,1.933.244,2.885.444.18.038.36.385.41.617.027.127-.194.346-.349.463-.162.122-.371.206-.572.249-3.005.644-5.955,1.604-9.084,1.54-.696-.014-1.394.104-2.471.193Z" fill="#feccff"/>
        <path d="M123.687,203.27c-.653.057-1.25-.515-1.22-1.148.043-.918.502-1.581,1.238-2.078.508-.344,1.357-.09,1.614.471.576,1.261-.236,2.634-1.631,2.755Z" fill="#feccff"/>
        <path d="M88.179,194.471c-.056.894-.84,1.604-1.729,1.566-1.018-.043-1.773-.929-1.715-2.011.049-.914.819-1.611,1.719-1.556,1.044.064,1.793.932,1.726,2Z" fill="#feccff"/>
        <path d="M81.299,18.673c-.154.06-.405.259-.59.21-.557-.148-.903-.563-1.068-1.122-.093-.313.243-.719.566-.678.711.09,1.191.71,1.092,1.59Z" fill="#feccff"/>
        <path d="M185.844,173.053c-.084.078-.168.156-.252.233-.038-.056-.118-.144-.106-.161.068-.09.16-.162.244-.24.038.056.075.112.114.168Z" fill="#feccff"/>
      </g>
    </g>
    <g>
      <path d="M140.311,204.577c-1.419,0-3.038-2.139-4.442-5.867l-.234-.624h-4.418v-17.405h18.189v17.405h-4.417l-.234.624c-1.405,3.729-3.024,5.867-4.443,5.867ZM151.183,178.753l-.56-3.296,12.344,1.952v1.344h-11.784ZM117.655,178.753v-1.344l12.345-1.952-.561,3.296h-11.784ZM117.655,175.186l-.58-.251c-3.664-1.59-5.682-3.464-5.682-5.277s2.018-3.688,5.682-5.277l.58-.251v-.694l7.476,6.223-7.476,6.222v-.693ZM155.493,169.658l7.475-6.222v.693l.58.251c3.664,1.589,5.682,3.463,5.682,5.277s-2.018,3.688-5.682,5.277l-.58.251v.692l-7.475-6.221ZM141.535,122.002c1.081.829,2.206,2.691,3.22,5.381l.234.624h4.417v32.557h13.562v1.343l-14.265,2.257-7.168-42.161ZM117.655,161.906v-1.343h13.562v-32.557h4.418l.234-.624c1.013-2.69,2.138-4.553,3.219-5.381l-7.167,42.161-14.266-2.257Z" fill="#fff"/>
      <path d="M143.227,126.2c.205.455.414.96.626,1.522l.47,1.248h4.12v27.912l-5.216-30.682M137.396,126.201l-5.216,30.68v-27.911h4.12l.47-1.248c.211-.561.421-1.067.625-1.521M159.199,161.527l-9.706,1.535-.261-1.535h9.967M131.391,161.527l-.261,1.535-9.706-1.535h9.967M118.042,165.011l5.582,4.646-5.582,4.646-.584-.253c-3.194-1.385-5.101-3.027-5.101-4.393s1.907-3.008,5.101-4.393l.584-.253M162.581,165.011l.584.253c3.194,1.385,5.101,3.028,5.101,4.393s-1.907,3.007-5.101,4.393l-.584.253-5.582-4.646,5.582-4.646M151.798,176.618l7.404,1.171h-7.205l-.199-1.171M128.825,176.618l-.199,1.171h-7.205l7.404-1.171M148.443,181.643v15.479h-4.12l-.47,1.248c-1.562,4.148-2.999,5.244-3.541,5.244s-1.979-1.096-3.541-5.244l-.47-1.248h-4.12v-15.479h16.262M140.311,120.551c-1.964,0-3.796,2.38-5.344,6.492h-4.714v32.557h-13.562v3.897c-3.924,1.702-6.262,3.839-6.262,6.161s2.337,4.458,6.262,6.161v3.898h13.562v19.333h4.714c1.548,4.111,3.38,6.492,5.344,6.492s3.796-2.38,5.344-6.492h4.714v-19.333h13.562v-3.898c3.924-1.702,6.262-3.839,6.262-6.161s-2.337-4.459-6.262-6.161v-3.897h-13.562v-32.557h-4.714c-1.548-4.111-3.38-6.492-5.344-6.492l7.602,44.712,14.017-2.217-7.943,6.612,7.943,6.612-12.481-1.974.921,5.42h-20.117l.921-5.42-12.481,1.974,7.943-6.612-7.943-6.612,14.017,2.217,7.601-44.712h0Z" fill="#3f3f3f"/>
    </g>
    <g>
      <path d="M193.007,88.709s6.642-15.756,18.786-21.791c-7.198,1.469-10.43,2.203-15.037,3.91-7.829,2.899-9.59,2.255-17.428,1.966-7.838-.289-74.483,6.365-74.483,6.365" fill="#3f3f3f" stroke="#fff" stroke-miterlimit="10" stroke-width=".964"/>
      <path d="M182.718,80.211l-75.869,73.154s52.593-60.904,56.926-75.678c1.379,4.334.223,23.239,8.413,6.202" fill="#3f3f3f" stroke="#fff" stroke-miterlimit="10" stroke-width=".964"/>
      <polyline points="178.899 68.882 199.556 44.717 193.429 81.497" fill="#3f3f3f" stroke="#fff" stroke-miterlimit="10" stroke-width=".964"/>
      <path d="M176.12,93.896l14.386-21.263-12.253,6.916-2.745-5.491s-1.224,3.113-4.172,1.299c-1.087-.669-2.88-3.166-4.613-8.547-1.824-5.666-4.429-9.908-9.704-15.359,1.231,6.682.178,11.316,2.947,15.964,1.342,2.252,1.149,3.741-.334,4.598-3.762,2.174.481,5.305,1.161,6.341,1.932,2.939,1.337,7.44,1.337,7.44l-9.942,5.207s8.031-7.446-1.852-18.098c-9.883-10.652-21.696-16.461-21.696-16.461,0,0,29.257,4.68,37.592,7.333,5.299,1.686,9.428,5.063,13.821,6.491s9.796-.628,13.043-2.104c.295,5.608,9.008,13.511,9.008,13.511l-25.983,12.222Z" fill="#3f3f3f" stroke="#fff" stroke-miterlimit="10" stroke-width=".964"/>
    </g>
    <g>
      <g>
        <path d="M71.269,122.591c-15.744-.123-31.006-2.463-41.872-6.419l-.729-.266-.718,2.505c-16.229-4.198-25.122-10.854-25.06-18.775.062-7.923,9.058-14.438,25.35-18.382l.678,2.516.732-.254c10.736-3.72,25.17-5.769,40.644-5.769.441,0,.884,0,1.325.005,2.009.016,4.032.069,6.163.163l-.095,5.249.71.025c5.801.201,9.366,1.938,10.598,5.165.117.307.208.617.278.949l.121.567,4.972.039.07-8.94,21.514,13.585-3.619,5.732-.064,8.252-26.775-.21-.198.154c-2.901,2.253-5.711,3.444-8.126,3.444h0c-2.377-.019-4.354-1.115-5.482-3.011l-.496-.885-.656.459c-1.854,1.296-3.599,2.424-5.188,3.354l-1.92,1.124,2.214.219c5.225.518,10.659.802,16.152.845.46.004.922.006,1.384.006,2.438,0,4.918-.051,7.384-.15l.632,7.664c-5.962.693-12.202,1.044-18.561,1.044-.453,0-.907,0-1.361-.005ZM50.521,88.29c-13.497,2.714-22.944,7.272-22.974,11.088-.018,2.321,4.391,6.073,14.279,9.226,2.239.714,4.729,1.384,7.4,1.99l.97.22-.09-.99c-.248-2.731.985-5.74,2.063-7.784l.347-.655-.665-.329c-2.872-1.423-4.31-3.387-4.272-5.837.031-2.089,1.211-3.984,3.506-5.632l2.725-1.956-3.289.66Z" fill="#fff"/>
        <path d="M70.295,78.469c.44,0,.88.002,1.319.005,1.785.014,3.574.058,5.433.133l-.069,3.833-.026,1.421,1.421.049c5.482.19,8.829,1.772,9.947,4.702.103.269.183.543.246.84l.241,1.136,1.162.009,3.669.029,1.446.011.011-1.445.054-6.918,19.804,12.505-3.124,4.948-.22.348-.003.412-.057,7.323-25.802-.202-.502-.004-.396.308c-2.773,2.154-5.43,3.293-7.684,3.293h-.052c-2.06-.017-3.812-.985-4.805-2.653-.033-.056-.066-.112-.097-.169l-.777-1.404-1.315.919c-1.834,1.282-3.563,2.4-5.139,3.323l-3.836,2.247,4.424.438c5.238.519,10.694.804,16.218.847.462.003.925.005,1.389.005,2.219,0,4.474-.042,6.721-.124l.517,6.276c-5.727.638-11.702.96-17.784.96-.451,0-.903-.002-1.354-.005-15.665-.122-30.839-2.446-41.63-6.376l-1.458-.531-.427,1.491-.309,1.081c-15.447-4.112-23.896-10.441-23.838-17.892.058-7.451,8.607-13.647,24.114-17.518l.292,1.085.403,1.498,1.466-.508c10.508-3.642,25.235-5.73,40.406-5.73M51.006,111.739l-.179-1.98c-.183-2.023.503-4.576,1.984-7.382l.692-1.312-1.329-.658c-2.638-1.306-3.904-3-3.871-5.178.028-1.848,1.106-3.549,3.204-5.057l5.448-3.913-6.576,1.322c-14.055,2.826-23.521,7.564-23.554,11.791-.025,3.155,5.778,7.049,14.782,9.92,2.252.719,4.762,1.394,7.46,2.007l1.939.44M70.295,77.024c-14.885,0-29.761,1.957-40.88,5.81l-.658-2.446c-17.08,4.01-26.523,10.844-26.589,19.243s9.269,15.379,26.285,19.655l.697-2.435c11.386,4.146,26.789,6.344,42.114,6.463.456.003.911.005,1.366.005,6.63,0,13.129-.38,19.339-1.131l-.746-9.051c-2.683.118-5.384.178-8.048.178-.46,0-.92-.002-1.378-.005-5.537-.043-10.941-.331-16.086-.84,1.523-.892,3.248-1.996,5.236-3.386.038.068.077.136.117.204,1.26,2.117,3.461,3.343,6.038,3.364h0c.021,0,.042,0,.063,0,3.127,0,6.207-1.761,8.571-3.597l27.247.213.069-8.768,3.896-6.169-23.223-14.664-.074,9.516-3.669-.029c-.074-.349-.174-.701-.31-1.056-1.839-4.818-7.954-5.516-11.247-5.63l.094-5.241c-2.395-.115-4.649-.179-6.892-.196-.443-.003-.887-.005-1.331-.005h0ZM49.387,109.889c-2.594-.589-5.056-1.245-7.341-1.974-10.131-3.23-13.789-6.872-13.776-8.532.022-2.802,7.784-7.448,22.393-10.385-1.944,1.396-3.765,3.42-3.806,6.209-.049,3.248,2.155,5.247,4.675,6.495-1.374,2.602-2.384,5.551-2.145,8.187h0Z" fill="#3f3f3f"/>
      </g>
      <g>
        <path d="M10.245,99.693c.047-5.946,7.576-11.238,19.55-14.881-13.942,3.273-23.035,8.675-23.083,14.854-.048,6.179,8.959,11.722,22.848,15.213-11.916-3.83-19.362-9.24-19.316-15.185Z" fill="#3f3f3f"/>
        <path d="M81.762,117.853c-32.13-.251-58.114-8.536-58.036-18.505.075-9.579,24.186-17.222,54.575-17.584-2.201-.105-4.437-.173-6.71-.191-30.822-.241-55.873,7.89-55.954,18.162s24.841,18.794,55.663,19.035c7.094.055,13.875-.337,20.124-1.093-3.145.138-6.369.202-9.661.177Z" fill="#3f3f3f"/>
        <g>
          <ellipse cx="63.536" cy="94.728" rx="6.177" ry="2.682" transform="translate(-10.828 8.24) rotate(-6.839)" fill="#3f3f3f"/>
          <path d="M84.169,97.951l-6.352,1.732s2.862-2.48,4.031-3.541c9.982-9.064-1.968-10.299-13.772-8.385-12.962,2.102-24.797,8.438-9.359,11.418-5.923,6.777-11.287,22.654,15.348,1.943-18.524,5.919-17.783,2.805-13.346-2.565-.148.003-.295.007-.445.005-3.819-.03-6.905-1.272-6.893-2.773s2.445-3.052,6.531-3.235c2.262-.101,4.18.932,5.437,1.471,1.379-1.138,3.922-3.019,5.203-3.81,8.608-5.318,10.958-1.992,7.064,5.329-6.988,13.139-1.146,15.709,6.502,8.959l.051-6.546Z" fill="#3f3f3f"/>
        </g>
        <rect x="84.123" y="103.194" width="24.358" height="1.399" transform="translate(.815 -.75) rotate(.448)" fill="#3f3f3f"/>
        <rect x="84.186" y="93.736" width="21.577" height="4.282" transform="translate(.753 -.74) rotate(.448)" fill="#3f3f3f"/>
        <polyline points="98.125 98.043 98.205 87.869 114.521 98.172" fill="#3f3f3f"/>
      </g>
    </g>
  </g>
</svg>